Coordinates
version=1
nRows=7
nColumns=40
inDegrees=yes

Units are S.I. units (second, meters, Newtons, ...)
Angles are in degrees.

endheader
time	pelvis_tilt	pelvis_list	pelvis_rotation	pelvis_tx	pelvis_ty	pelvis_tz	hip_flexion_r	hip_adduction_r	hip_rotation_r	knee_angle_r	knee_angle_r_beta	ankle_angle_r	subtalar_angle_r	mtp_angle_r	hip_flexion_l	hip_adduction_l	hip_rotation_l	knee_angle_l	knee_angle_l_beta	ankle_angle_l	subtalar_angle_l	mtp_angle_l	lumbar_extension	lumbar_bending	lumbar_rotation	arm_flex_r	arm_add_r	arm_rot_r	elbow_flex_r	pro_sup_r	wrist_flex_r	wrist_dev_r	arm_flex_l	arm_add_l	arm_rot_l	elbow_flex_l	pro_sup_l	wrist_flex_l	wrist_dev_l
     24.38250000	     -4.40785094	     -2.95378703	      5.46967735	      1.02847155	      0.91523330	      0.45890099	     26.71248835	     -1.95007365	    -15.29392052	     23.73864395	     23.73864395	      3.41413545	     -8.75636281	     -1.19391277	      0.41524901	     -8.47029845	     -6.70538895	     32.91764203	     32.91764203	     12.82807715	     -8.42219184	    -14.29973645	     -8.48678797	      1.79604606	     -1.65061080	    -12.88759367	    -16.89418774	      3.51346068	     41.05097154	     45.37828193	      0.00000000	      0.00000000	     12.22868224	    -17.66242621	     -4.35961390	     85.77472962	     47.83424906	      0.00000000	      0.00000000
     24.39514286	     -4.42453946	     -3.16707994	      5.70787170	      1.02970936	      0.91691148	      0.46132187	     25.80809740	     -1.52010811	    -15.69474450	     23.18287213	     23.18287213	      3.89828925	     -8.46463032	     -1.39219582	      2.51081243	     -9.14205299	     -5.68510560	     37.17258655	     37.17258655	     10.56439548	    -10.61027998	    -14.29725656	     -8.64347987	      1.96687900	     -1.45990328	    -11.34617252	    -17.11454380	      3.51053283	     41.98731876	     45.35491088	      0.00000000	      0.00000000	     11.36236493	    -17.17731318	     -4.04212819	     84.33597862	     47.78567320	      0.00000000	      0.00000000
     24.40778571	     -4.43787697	     -3.24085913	      5.92615498	      1.03060725	      0.91844893	      0.46346999	     24.94710767	     -1.26504089	    -16.07208478	     22.69098293	     22.69098293	      4.25126287	     -8.09004399	     -2.10143666	      4.72091968	     -9.37508396	     -4.21471210	     41.39858724	     41.39858724	      7.98195746	    -13.57197839	    -13.66865483	     -8.78923971	      2.04841922	     -0.98003878	    -10.32761609	    -17.74146097	      4.24252246	     44.37691789	     45.24817995	      0.00000000	      0.00000000	     11.24193661	    -16.30321097	     -3.75625157	     81.11731248	     47.72355693	      0.00000000	      0.00000000
     24.42042857	     -4.47283001	     -3.45262925	      6.16387784	      1.03117680	      0.91968807	      0.46563438	     24.12068789	     -0.84383494	    -16.44869416	     22.12773439	     22.12773439	      4.52803923	     -7.84498927	     -2.63624165	      7.26607731	     -9.77329290	     -2.88539788	     45.97149532	     45.97149532	      6.53692409	    -15.00531204	    -10.68349639	     -8.92641791	      2.25037581	     -0.64639750	     -9.02352393	    -18.29479756	      4.58236354	     46.44866440	     45.18304539	      0.00000000	      0.00000000	     10.79404504	    -15.68437182	     -3.33114748	     78.49252603	     47.65979057	      0.00000000	      0.00000000
     24.43307143	     -4.42282709	     -3.78888361	      6.37408663	      1.03146135	      0.92072321	      0.46789393	     23.29236129	     -0.26424808	    -16.78061999	     21.65931649	     21.65931649	      4.90640611	     -7.64088591	     -2.74594600	      9.73673385	    -10.33101988	     -1.73469248	     50.17334260	     50.17334260	      4.50059451	    -16.23513822	     -9.82402618	     -9.22487374	      2.51297511	     -0.44940512	     -7.03533770	    -18.60402003	      4.35911064	     47.43169869	     45.17103615	      0.00000000	      0.00000000	      9.87991919	    -15.21583248	     -2.95586187	     77.23218167	     47.60789435	      0.00000000	      0.00000000
     24.44571429	     -4.56362939	     -3.99291332	      6.64539126	      1.03140759	      0.92149037	      0.46970362	     22.63657905	      0.10791273	    -17.15874080	     21.10498801	     21.10498801	      5.07450613	     -7.42780031	     -3.36549356	     12.74002712	    -10.35387797	     -0.14311167	     54.72055078	     54.72055078	      5.49728860	    -15.99253820	     -1.72520529	     -9.20116051	      2.76196040	     -0.13321266	     -5.89921123	    -19.36086026	      4.79219746	     50.50194416	     45.08012238	      0.00000000	      0.00000000	      9.80983733	    -14.47286028	     -2.65190966	     72.97581967	     47.51948940	      0.00000000	      0.00000000
     24.45835714	     -4.54971684	     -4.33455997	      6.85609841	      1.03123187	      0.92220404	      0.47168649	     21.93657197	      0.66349549	    -17.46210371	     20.72688026	     20.72688026	      5.40341066	     -7.24776999	     -3.45008383	     15.25626888	    -10.65664504	      1.04589199	     58.12853662	     58.12853662	      3.98342623	    -16.67863815	     -1.20150007	     -9.45690067	      3.04623738	      0.12777205	     -3.70290409	    -19.69577477	      4.49430931	     51.53452581	     45.07028350	      0.00000000	      0.00000000	      8.86508759	    -13.93971359	     -2.31570015	     71.67130352	     47.46841167	      0.00000000	      0.00000000
